<svg xmlns="http://www.w3.org/2000/svg" viewBox="0 0 1200 800" preserveAspectRatio="xMidYMid slice" role="img"><title>A lighthouse above a harbour with sailing boats</title><defs><linearGradient id="g1" x1="0" y1="0" x2="0" y2="1"><stop offset="0" stop-color="#7cc3cf"/><stop offset="0.55" stop-color="#cfe9e6"/><stop offset="0.68" stop-color="#f6e7c8"/></linearGradient><radialGradient id="g2" cx="0.5" cy="0.5" r="0.5"><stop offset="0" stop-color="#ffe7ad" stop-opacity="0.55"/><stop offset="0.35" stop-color="#ffe7ad" stop-opacity="0.18"/><stop offset="1" stop-color="#ffe7ad" stop-opacity="0"/></radialGradient><linearGradient id="g3" x1="0" y1="0" x2="0" y2="1"><stop offset="0" stop-color="#2b8a9a"/><stop offset="1" stop-color="#135e6b"/></linearGradient></defs><rect x="0" y="0" width="1200" height="800" fill="url(#g1)"/><circle cx="900" cy="190" r="210" fill="url(#g2)"/><circle cx="900" cy="190" r="70" fill="#fff4d3"/><g fill="#ffffff" opacity="0.85"><ellipse cx="260" cy="150" rx="76.8" ry="20.2"/><circle cx="233.6" cy="140.4" r="24"/><circle cx="269.6" cy="129.8" r="32.6"/><circle cx="303.2" cy="144.2" r="20.2"/></g><g fill="#ffffff" opacity="0.7"><ellipse cx="640" cy="110" rx="54.4" ry="14.3"/><circle cx="621.3" cy="103.2" r="17"/><circle cx="646.8" cy="95.7" r="23.1"/><circle cx="670.6" cy="105.9" r="14.3"/></g><path d="M506,216 Q514,210 520,220 Q526,210 534,216" fill="none" stroke="#2f5560" stroke-width="2.6" stroke-linecap="round"/><path d="M549.5,197 Q555.5,192.5 560,200 Q564.5,192.5 570.5,197" fill="none" stroke="#2f5560" stroke-width="2" stroke-linecap="round"/><path d="M-50,805 L-50,494.8 C58.3,494.8 58.3,499.1 166.7,499.1 C275,499.1 275,489.6 383.3,489.6 C491.7,489.6 491.7,497.5 600,497.5 C708.3,497.5 708.3,500.3 816.7,500.3 C925,500.3 925,489.4 1033.3,489.4 C1141.7,489.4 1141.7,472.7 1250,472.7 L1250,805 Z" fill="#8fb9a7"/><rect x="0" y="520" width="1200" height="280" fill="url(#g3)"/><rect x="166.2" y="650.4" width="32.4" height="2.9" rx="2" fill="#e8fbff" opacity="0.55"/><rect x="1078" y="531.7" width="19.8" height="2" rx="2" fill="#e8fbff" opacity="0.28"/><rect x="49.1" y="674.1" width="46.3" height="3.1" rx="2" fill="#e8fbff" opacity="0.38"/><rect x="870.1" y="712.9" width="44.5" height="3.4" rx="2" fill="#e8fbff" opacity="0.31"/><rect x="607.5" y="591.9" width="16.7" height="2.5" rx="2" fill="#e8fbff" opacity="0.57"/><rect x="460.4" y="683.5" width="55.1" height="3.2" rx="2" fill="#e8fbff" opacity="0.51"/><rect x="809.1" y="556.4" width="18.2" height="2.2" rx="2" fill="#e8fbff" opacity="0.50"/><rect x="320.1" y="639.7" width="20" height="2.8" rx="2" fill="#e8fbff" opacity="0.32"/><rect x="239.4" y="603.1" width="40.6" height="2.6" rx="2" fill="#e8fbff" opacity="0.56"/><rect x="454.6" y="758.6" width="28" height="3.8" rx="2" fill="#e8fbff" opacity="0.42"/><rect x="1087.7" y="536.1" width="18.8" height="2" rx="2" fill="#e8fbff" opacity="0.29"/><rect x="694.4" y="685.2" width="25.3" height="3.2" rx="2" fill="#e8fbff" opacity="0.56"/><rect x="100.2" y="582.8" width="12.9" height="2.4" rx="2" fill="#e8fbff" opacity="0.44"/><rect x="596.1" y="534.5" width="11.2" height="2" rx="2" fill="#e8fbff" opacity="0.57"/><rect x="766.5" y="639.2" width="31.9" height="2.8" rx="2" fill="#e8fbff" opacity="0.28"/><rect x="730.7" y="680.7" width="27.3" height="3.2" rx="2" fill="#e8fbff" opacity="0.59"/><rect x="727.7" y="544.1" width="22.9" height="2.1" rx="2" fill="#e8fbff" opacity="0.30"/><rect x="1197.6" y="599.8" width="45.9" height="2.5" rx="2" fill="#e8fbff" opacity="0.29"/><rect x="284.1" y="713.4" width="69.8" height="3.4" rx="2" fill="#e8fbff" opacity="0.46"/><rect x="808.9" y="541.2" width="18.1" height="2.1" rx="2" fill="#e8fbff" opacity="0.46"/><rect x="416.6" y="731.4" width="27.6" height="3.5" rx="2" fill="#e8fbff" opacity="0.55"/><rect x="482.6" y="681.9" width="40.1" height="3.2" rx="2" fill="#e8fbff" opacity="0.60"/><rect x="959.2" y="679.4" width="20.2" height="3.1" rx="2" fill="#e8fbff" opacity="0.37"/><rect x="532.8" y="642.7" width="25.2" height="2.9" rx="2" fill="#e8fbff" opacity="0.36"/><rect x="123.7" y="553.1" width="26.2" height="2.2" rx="2" fill="#e8fbff" opacity="0.52"/><rect x="969.1" y="536.6" width="26.7" height="2.1" rx="2" fill="#e8fbff" opacity="0.42"/><rect x="885.1" y="714.5" width="34.4" height="3.4" rx="2" fill="#e8fbff" opacity="0.40"/><rect x="481.1" y="590" width="42.8" height="2.5" rx="2" fill="#e8fbff" opacity="0.38"/><rect x="801" y="753.6" width="45.6" height="3.7" rx="2" fill="#e8fbff" opacity="0.31"/><rect x="60.6" y="749.3" width="38.8" height="3.7" rx="2" fill="#e8fbff" opacity="0.59"/><rect x="1183.4" y="574.9" width="38.9" height="2.3" rx="2" fill="#e8fbff" opacity="0.46"/><rect x="250.3" y="533.1" width="10.5" height="2" rx="2" fill="#e8fbff" opacity="0.39"/><rect x="425.4" y="689" width="65.1" height="3.2" rx="2" fill="#e8fbff" opacity="0.30"/><rect x="103.9" y="676.1" width="25.2" height="3.1" rx="2" fill="#e8fbff" opacity="0.44"/><rect x="541.7" y="711" width="24.8" height="3.4" rx="2" fill="#e8fbff" opacity="0.50"/><rect x="1064.6" y="728.7" width="43.1" height="3.5" rx="2" fill="#e8fbff" opacity="0.31"/><rect x="1056.3" y="716" width="61.3" height="3.4" rx="2" fill="#e8fbff" opacity="0.42"/><rect x="634.6" y="555.8" width="12" height="2.2" rx="2" fill="#e8fbff" opacity="0.31"/><rect x="936.2" y="693.7" width="24.3" height="3.3" rx="2" fill="#e8fbff" opacity="0.33"/><rect x="548" y="533.4" width="13" height="2" rx="2" fill="#e8fbff" opacity="0.45"/><rect x="578.5" y="631" width="22.4" height="2.8" rx="2" fill="#e8fbff" opacity="0.58"/><rect x="34.5" y="669.2" width="59.6" height="3.1" rx="2" fill="#e8fbff" opacity="0.60"/><rect x="628.2" y="761.1" width="56.8" height="3.8" rx="2" fill="#e8fbff" opacity="0.44"/><rect x="771.4" y="766.5" width="29.3" height="3.8" rx="2" fill="#e8fbff" opacity="0.44"/><rect x="864.8" y="608.1" width="38.8" height="2.6" rx="2" fill="#e8fbff" opacity="0.29"/><rect x="588.3" y="711.9" width="44.4" height="3.4" rx="2" fill="#e8fbff" opacity="0.47"/><rect x="447.8" y="543.8" width="24" height="2.1" rx="2" fill="#e8fbff" opacity="0.56"/><rect x="875.5" y="590.1" width="38.4" height="2.5" rx="2" fill="#e8fbff" opacity="0.47"/><rect x="716.4" y="757.7" width="26.8" height="3.8" rx="2" fill="#e8fbff" opacity="0.46"/><rect x="82.8" y="706.3" width="41.3" height="3.4" rx="2" fill="#e8fbff" opacity="0.32"/><rect x="77.9" y="688.1" width="28.4" height="3.2" rx="2" fill="#e8fbff" opacity="0.37"/><rect x="31.2" y="652.3" width="39.3" height="2.9" rx="2" fill="#e8fbff" opacity="0.52"/><rect x="10.3" y="616.8" width="42.4" height="2.7" rx="2" fill="#e8fbff" opacity="0.58"/><rect x="1183.6" y="683.5" width="64.3" height="3.2" rx="2" fill="#e8fbff" opacity="0.54"/><rect x="277.6" y="557.6" width="19.8" height="2.2" rx="2" fill="#e8fbff" opacity="0.52"/><path d="M-10,560 C120,470 260,430 380,440 C430,450 470,500 520,560 Z" fill="#3e6b4f"/><path d="M-10,560 L520,560 L520,600 L-10,600 Z" fill="#2c4f3a"/><path d="M255,440 L279,262 L321,262 L345,440 Z" fill="#fbf7f0"/><path d="M275.2,290 L324.8,290 L327.8,312 L272.2,312 Z" fill="#b5462a"/><path d="M267.1,350 L332.9,350 L335.9,372 L264.1,372 Z" fill="#b5462a"/><path d="M259,410 L341,410 L344,432 L256,432 Z" fill="#b5462a"/><rect x="270" y="236" width="60" height="28" rx="4" fill="#1c3a40"/><rect x="283" y="241" width="34" height="18" rx="3" fill="#ffe7a3"/><path d="M266,236 L300,208 L334,236 Z" fill="#b5462a"/><path d="M330,250 L520,210 L520,290 Z" fill="#fff4c6" opacity="0.35"/><rect x="352" y="400" width="60" height="42" fill="#fbf7f0"/><path d="M346,402 L382,378 L418,402 Z" fill="#8a3b2a"/><path d="M700,640 L830,640 L810,660 L715,660 Z" fill="#1c3a40"/><path d="M760,636 L760,490 L820,632 Z" fill="#fbf7f0"/><path d="M754,634 L754,522 L708,632 Z" fill="#f2b544"/><path d="M974,580 L1052,580 L1040,592 L983,592 Z" fill="#1c3a40"/><path d="M1010,577.6 L1010,490 L1046,575.2 Z" fill="#fbf7f0"/><path d="M1006.4,576.4 L1006.4,509.2 L978.8,575.2 Z" fill="#f2b544"/><path d="M573,560 L631.5,560 L622.5,569 L579.8,569 Z" fill="#1c3a40"/><path d="M600,558.2 L600,492.5 L627,556.4 Z" fill="#f6e0cf"/><path d="M597.3,557.3 L597.3,506.9 L576.6,556.4 Z" fill="#f2b544"/></svg>